PathFileType	4	(X/Y/Z)	Run_300 02
DataRate	CameraRate	NumFrames	NumMarkers	Units	OrigDataRate	OrigDataStartFrame	OrigNumFrames
100	100	6	42	mm	100	167	128
Frame#	Time	RASI			LPSI			RPSI			RTH1			RTH2			RTH3			LTH1			LTH2			LTH3			RTB1			RTB2			RTB3			LTB1			LTB2			LTB3			RCAL			RTOE			RMT5			LCAL			LTOE			LMT5			LACR			RACR			CLAV			C7			RUA1			RUA2			RUA3			RLEL			RMEL			LUA1			LUA2			LUA3			LLEL			LMEL			RFAsuperior			RFAradius			RFAulna			LFAsuperior			LFAradius			LFAulna			LASI			
		X1	Y1	Z1	X2	Y2	Z2	X3	Y3	Z3	X4	Y4	Z4	X5	Y5	Z5	X6	Y6	Z6	X7	Y7	Z7	X8	Y8	Z8	X9	Y9	Z9	X10	Y10	Z10	X11	Y11	Z11	X12	Y12	Z12	X13	Y13	Z13	X14	Y14	Z14	X15	Y15	Z15	X16	Y16	Z16	X17	Y17	Z17	X18	Y18	Z18	X19	Y19	Z19	X20	Y20	Z20	X21	Y21	Z21	X22	Y22	Z22	X23	Y23	Z23	X24	Y24	Z24	X25	Y25	Z25	X26	Y26	Z26	X27	Y27	Z27	X28	Y28	Z28	X29	Y29	Z29	X30	Y30	Z30	X31	Y31	Z31	X32	Y32	Z32	X33	Y33	Z33	X34	Y34	Z34	X35	Y35	Z35	X36	Y36	Z36	X37	Y37	Z37	X38	Y38	Z38	X39	Y39	Z39	X40	Y40	Z40	X41	Y41	Z41	X42	Y42	Z42	

163	2.14	967.320192	1036.336768	-222.84466	810.822898	1098.086107	-410.669117	807.062944	1092.332328	-298.000258	877.692947	913.655622	-179.852172	815.230458	772.090561	-209.747417	847.0921949999999	615.8278319999999	-230.009887	940.488258	917.657089	-531.25544	946.3864	758.968792	-499.513935	1062.804072	669.687549	-497.315464	831.440467	362.70202	-318.107332	743.955121	346.959444	-248.436872	718.48694	209.241381	-338.598244	1089.427448	468.277873	-438.342135	952.021895	455.432671	-493.325413	914.039441	338.379572	-441.36219	545.697207	130.041	-338.30722	778.000515	70.290278	-373.949306	727.9729129999999	51.384799	-276.560802	726.450123	330.638469	-419.306666	892.220062	159.957097	-421.118794	828.517929	164.395029	-513.249311	942.708923	1528.106528	-497.201589	1001.180467	1498.321382	-180.235015	1038.999678	1469.676757	-316.261505	910.192592	1541.887939	-333.114555	914.682584	1396.274959	-97.62430500000001	964.000616	1338.309826	-82.514484	913.500816	1258.732761	-28.329029	894.005227	1197.772513	4.322795	878.486342	1170.180617	-81.008398	820.169175	1460.539072	-534.246157	824.824269	1385.367548	-575.507569	735.215816	1346.776471	-591.204436	696.5290639999999	1291.558075	-612.469959	685.234016	1270.057058	-525.753976	993.524628	1157.972966	-23.404065	1120.629685	1150.166649	-151.751847	1119.545161	1096.849764	-107.572555	739.797861	1216.542727	-616.736472	902.318119	1144.293218	-548.014988	865.707749	1092.248003	-581.800254	958.309032	1040.791921	-451.833794	
164	2.15	969.874716	1043.35304	-221.847215	811.772508	1106.152483	-408.955508	809.45776	1099.45814	-296.483245	878.232053	919.121721	-180.559154	807.79652	780.884033	-209.307752	830.749878	624.08086	-230.230597	942.295891	927.635183	-531.474337	948.668767	768.04026	-498.504347	1066.308982	680.7822650000001	-496.149318	807.406795	370.602753	-317.384828	719.576611	356.120942	-248.158039	694.015572	217.617067	-337.817174	1101.933955	476.867393	-438.857825	965.177577	453.344788	-491.3625	937.6422229999999	332.815756	-439.723746	522.262033	142.868775	-337.33431	748.902874	69.723601	-374.035697	698.5615749999999	52.460534	-276.986912	751.702394	309.07301	-415.931194	931.383053	153.389691	-420.38264	866.194859	152.180447	-511.212793	940.388332	1536.277246	-497.236783	1002.698505	1506.985632	-181.584677	1039.15685	1478.211451	-318.265153	910.002073	1549.103071	-332.806253	917.998765	1404.16895	-98.05464000000001	968.768525	1346.570767	-83.99321999999999	920.879554	1266.204396	-29.264405	902.3080200000001	1204.603183	3.083402	884.82835	1177.961871	-82.386256	816.738859	1471.246125	-531.902917	819.662968	1395.9384	-573.591229	729.341625	1358.499072	-587.99198	689.109583	1303.945267	-607.800696	679.537718	1282.731217	-520.840158	1001.985884	1169.443428	-28.220924	1125.008289	1169.922217	-160.703234	1128.483554	1116.400108	-116.882851	732.7809999999999	1229.666619	-612.83258	897.390651	1160.039957	-547.159615	861.269537	1107.337119	-580.527417	958.420573	1049.302447	-448.929821	
165	2.16	972.797642	1050.75008	-220.6389	812.6354	1114.503258	-407.086106	812.227483	1106.909999	-294.799603	879.0654469999999	925.040334	-181.194984	801.248823	790.211437	-208.876766	815.954674	633.390327	-229.850608	943.46911	937.333807	-531.592099	950.042903	777.280234	-497.01098	1068.156055	691.194759	-494.672399	785.569667	379.489116	-316.151107	696.879386	366.523376	-247.486325	671.710813	226.92348	-336.762313	1112.734167	485.018297	-438.993475	977.366798	450.654541	-488.988348	961.26805	327.405336	-437.704402	501.248384	157.68911	-336.403807	720.210799	69.015687	-373.537417	669.833959	54.089923	-276.950255	778.48918	287.269724	-410.993851	971.071831	148.094053	-419.813257	904.246051	141.329109	-509.067873	938.6301560000001	1544.381291	-497.150704	1004.247494	1515.56983	-183.07624	1039.374372	1486.717349	-320.232254	910.006622	1556.39023	-332.616667	921.31602	1412.391021	-98.338808	973.1401949999999	1355.073687	-85.35555100000001	927.3059479999999	1274.180139	-29.973696	909.689434	1211.98847	1.943269	890.1382589999999	1186.100795	-83.35682799999999	814.076669	1481.6943	-529.800252	815.381064	1406.290266	-571.618639	724.093259	1370.384157	-584.347783	682.5346950000001	1316.262226	-603.04016	674.687371	1295.203532	-515.810604	1009.21591	1181.164366	-32.854299	1127.863944	1189.538048	-168.924371	1135.524665	1135.978614	-125.657067	726.477579	1242.500209	-608.830553	893.089858	1175.293441	-546.112024	857.297074	1121.979694	-578.97177	958.469079	1058.026782	-445.761575	
166	2.17	975.878297	1058.210342	-219.408818	813.394627	1122.876251	-405.284054	815.16535	1114.405405	-293.088237	879.752013	931.369148	-181.630839	795.609134	799.7792009999999	-208.169505	803.004072	643.3265699999999	-229.050338	943.695925	946.426422	-531.70804	950.535088	786.317287	-495.099668	1068.266538	700.496404	-492.757824	765.844726	389.070578	-313.96653	675.939748	377.700519	-246.477923	652.0319009999999	236.941023	-335.566522	1121.772663	492.348293	-438.190322	988.872525	446.990039	-486.365693	984.660762	322.202181	-435.290978	482.699026	173.763391	-335.708262	692.1351550000001	68.30523599999999	-372.944082	641.778308	56.222924	-276.803888	806.581555	265.674158	-405.104464	1010.885197	144.518536	-419.027309	942.627531	131.953022	-506.594944	937.393989	1552.2198	-496.883765	1005.894075	1523.768609	-184.761156	1039.612162	1494.831962	-322.05494	910.189401	1563.58454	-332.549011	924.738748	1420.77531	-98.544138	977.207236	1363.563668	-86.60206599999999	932.778789	1282.438303	-30.456291	916.119127	1219.716182	0.972091	894.554839	1194.315746	-83.935613	812.066827	1491.571151	-527.969733	811.820152	1416.210822	-569.582456	719.41479	1382.161068	-580.209862	676.855451	1328.230478	-598.2472760000001	670.696182	1307.041812	-510.813353	1015.3061	1193.095437	-37.226163	1129.351409	1208.620613	-176.327511	1140.851592	1155.16571	-133.720878	721.091087	1254.947074	-604.761399	889.371476	1189.642393	-544.910602	853.776391	1135.76819	-577.118142	958.6609979999999	1066.47473	-443.570409	
167	2.18	978.907771	1065.427802	-218.332921	814.215101	1130.888093	-403.730484	818.054021	1121.674586	-291.507366	880.326329	937.955988	-181.797581	791.096421	809.256601	-206.869821	792.006922	653.493664	-228.037299	943.009191	954.728266	-531.973954	949.8583170000001	794.521717	-492.926599	1066.65693	708.273902	-490.38233	748.05872	399.204153	-311.02974	656.794578	389.345172	-245.266111	634.716707	247.456366	-333.992334	1129.184872	498.551545	-436.591223	1000.023007	442.136815	-483.650286	1007.612489	317.224412	-432.52446	466.473634	190.618691	-335.204744	664.927232	67.89289599999999	-372.587167	614.404771	59.001198	-276.827352	835.690695	244.752378	-399.049725	1050.177483	142.838493	-417.32071	981.2860920000001	124.088715	-503.397328	936.59559	1559.667038	-496.623221	1007.693508	1531.517816	-186.404813	1039.884424	1502.38798	-323.614779	910.570781	1570.560908	-332.523287	928.125694	1429.078331	-98.727726	980.973822	1371.78815	-87.676388	937.383159	1290.779118	-30.700701	921.601777	1227.532381	0.247235	898.22333	1202.348596	-84.225566	810.555576	1500.723905	-526.280703	808.743283	1425.61107	-567.46869	715.301407	1393.460785	-575.723955	672.039504	1339.517926	-593.3983909999999	667.541141	1317.932229	-505.90775	1020.273282	1205.040784	-41.20329	1129.613294	1226.774293	-182.883133	1144.722149	1173.63761	-140.88317	716.63197	1266.732263	-600.685423	886.278631	1202.801054	-543.682709	850.757727	1148.439078	-575.129138	959.281067	1074.282534	-443.493823	
168	2.19	981.715553	1072.169931	-217.513769	815.277931	1138.135456	-402.512066	820.717115	1128.484994	-290.175645	881.0473909999999	944.573693	-181.671465	787.935883	818.353782	-204.987428	782.891428	663.52717	-226.908423	941.759786	962.1035890000001	-532.536836	947.6653260000001	801.289248	-490.632268	1063.433063	714.165119	-487.773823	732.236622	409.667868	-307.93885	639.550668	401.284462	-244.015209	619.154591	258.164885	-331.768379	1135.185794	503.521855	-434.759393	1011.063394	436.161291	-480.989618	1029.932735	312.519226	-429.418498	452.388957	208.045749	-334.577841	638.810907	68.185513	-372.490611	587.894196	62.82728	-276.868737	865.405485	224.966432	-393.477579	1088.231609	142.939609	-413.937464	1020.058381	117.663745	-499.015181	936.099971	1566.620977	-496.562	1009.711014	1538.930228	-187.616385	1040.236868	1509.322354	-324.902031	911.1608629999999	1577.161343	-332.435422	931.276689	1437.003217	-98.892082	984.344151	1379.527679	-88.488117	941.220269	1298.959612	-30.664158	926.1840529999999	1235.115517	-0.226989	901.21639	1209.962297	-84.338871	809.411464	1509.101878	-524.5276	805.977908	1434.403116	-565.298457	711.7786149999999	1403.870171	-571.19908	668.001921	1349.752718	-588.4652620000001	665.143139	1327.672945	-501.070354	1024.122029	1216.570895	-44.682049	1128.814598	1243.548866	-188.576924	1147.382805	1190.938848	-147.118674	712.958577	1277.474235	-596.640035	883.882231	1214.624243	-542.593611	848.292224	1159.837128	-573.2112530000001	960.457825	1081.346401	-445.726615	
